<mxfile host="app.diagrams.net" modified="2022-09-07T12:18:37.031Z" agent="5.0 (Windows NT 10.0; Win64; x64) AppleWebKit/537.36 (KHTML, like Gecko) Chrome/105.0.0.0 Safari/537.36 Edg/105.0.1343.27" etag="s7AU72OgFq_l8pntMj1O" version="20.2.8" type="github">
  <diagram name="Page-1" id="5f0bae14-7c28-e335-631c-24af17079c00">
    <mxGraphModel dx="1422" dy="762" grid="1" gridSize="10" guides="1" tooltips="1" connect="1" arrows="1" fold="1" page="1" pageScale="1" pageWidth="1100" pageHeight="850" background="none" math="0" shadow="0">
      <root>
        <mxCell id="0" />
        <mxCell id="1" parent="0" />
        <mxCell id="39150e848f15840c-2" value="Block" style="verticalAlign=top;align=left;spacingTop=8;spacingLeft=2;spacingRight=12;shape=cube;size=10;direction=south;fontStyle=4;html=1;rounded=0;shadow=0;comic=0;labelBackgroundColor=none;strokeWidth=1;fontFamily=Verdana;fontSize=12" parent="1" vertex="1">
          <mxGeometry x="605" y="810" width="330" height="220" as="geometry" />
        </mxCell>
        <mxCell id="39150e848f15840c-3" value="Block" style="verticalAlign=top;align=left;spacingTop=8;spacingLeft=2;spacingRight=12;shape=cube;size=10;direction=south;fontStyle=4;html=1;rounded=0;shadow=0;comic=0;labelBackgroundColor=none;strokeWidth=1;fontFamily=Verdana;fontSize=12" parent="1" vertex="1">
          <mxGeometry x="365" y="820" width="260" height="150" as="geometry" />
        </mxCell>
        <mxCell id="39150e848f15840c-4" value="«component»&lt;br&gt;&lt;b&gt;Name&lt;/b&gt;" style="html=1;rounded=0;shadow=0;comic=0;labelBackgroundColor=none;strokeWidth=1;fontFamily=Verdana;fontSize=12;align=center;" parent="1" vertex="1">
          <mxGeometry x="125" y="610" width="110" height="50" as="geometry" />
        </mxCell>
        <mxCell id="39150e848f15840c-5" value="Doctores" style="shape=component;align=left;spacingLeft=36;rounded=0;shadow=0;comic=0;labelBackgroundColor=none;strokeWidth=1;fontFamily=Verdana;fontSize=12;html=1;" parent="1" vertex="1">
          <mxGeometry x="760" y="130" width="120" height="60" as="geometry" />
        </mxCell>
        <mxCell id="39150e848f15840c-6" value="" style="ellipse;whiteSpace=wrap;html=1;rounded=0;shadow=0;comic=0;labelBackgroundColor=none;strokeWidth=1;fontFamily=Verdana;fontSize=12;align=center;" parent="1" vertex="1">
          <mxGeometry x="265" y="615" width="20" height="20" as="geometry" />
        </mxCell>
        <mxCell id="39150e848f15840c-7" value="Module" style="shape=component;align=left;spacingLeft=36;rounded=0;shadow=0;comic=0;labelBackgroundColor=none;strokeWidth=1;fontFamily=Verdana;fontSize=12;html=1;" parent="1" vertex="1">
          <mxGeometry x="45" y="700" width="120" height="60" as="geometry" />
        </mxCell>
        <mxCell id="0rFehyaGPtpCF3SvgttN-1" style="edgeStyle=orthogonalEdgeStyle;rounded=0;orthogonalLoop=1;jettySize=auto;html=1;exitX=0.25;exitY=1;exitDx=0;exitDy=0;" edge="1" parent="1" source="39150e848f15840c-8">
          <mxGeometry relative="1" as="geometry">
            <mxPoint x="180" y="650" as="targetPoint" />
          </mxGeometry>
        </mxCell>
        <mxCell id="0rFehyaGPtpCF3SvgttN-2" style="edgeStyle=orthogonalEdgeStyle;rounded=0;orthogonalLoop=1;jettySize=auto;html=1;exitX=1;exitY=0.5;exitDx=0;exitDy=0;" edge="1" parent="1" source="39150e848f15840c-8">
          <mxGeometry relative="1" as="geometry">
            <mxPoint x="380" y="620" as="targetPoint" />
          </mxGeometry>
        </mxCell>
        <mxCell id="39150e848f15840c-8" value="&amp;laquo;interface&amp;raquo;&lt;br&gt;&lt;b&gt;Name&lt;/b&gt;" style="html=1;rounded=0;shadow=0;comic=0;labelBackgroundColor=none;strokeWidth=1;fontFamily=Verdana;fontSize=12;align=center;" parent="1" vertex="1">
          <mxGeometry x="40" y="630" width="110" height="50" as="geometry" />
        </mxCell>
        <mxCell id="39150e848f15840c-9" value="" style="ellipse;whiteSpace=wrap;html=1;rounded=0;shadow=0;comic=0;labelBackgroundColor=none;strokeWidth=1;fontFamily=Verdana;fontSize=12;align=center;" parent="1" vertex="1">
          <mxGeometry x="740" y="150" width="20" height="20" as="geometry" />
        </mxCell>
        <mxCell id="39150e848f15840c-10" value="Module" style="shape=component;align=left;spacingLeft=36;rounded=0;shadow=0;comic=0;labelBackgroundColor=none;strokeWidth=1;fontFamily=Verdana;fontSize=12;html=1;" parent="1" vertex="1">
          <mxGeometry x="435" y="650" width="120" height="60" as="geometry" />
        </mxCell>
        <mxCell id="39150e848f15840c-11" style="edgeStyle=none;rounded=0;html=1;dashed=1;labelBackgroundColor=none;startArrow=none;startFill=0;startSize=8;endArrow=open;endFill=0;endSize=16;fontFamily=Verdana;fontSize=12;" parent="1" source="39150e848f15840c-10" edge="1">
          <mxGeometry relative="1" as="geometry">
            <mxPoint x="420" y="630" as="targetPoint" />
            <Array as="points">
              <mxPoint x="460" y="600" />
            </Array>
          </mxGeometry>
        </mxCell>
        <mxCell id="39150e848f15840c-12" style="edgeStyle=none;rounded=0;html=1;dashed=1;labelBackgroundColor=none;startArrow=none;startFill=0;startSize=8;endArrow=open;endFill=0;endSize=16;fontFamily=Verdana;fontSize=12;" parent="1" source="39150e848f15840c-3" edge="1">
          <mxGeometry relative="1" as="geometry">
            <mxPoint x="510" y="590" as="targetPoint" />
            <Array as="points">
              <mxPoint x="570" y="580" />
            </Array>
          </mxGeometry>
        </mxCell>
        <mxCell id="39150e848f15840c-13" style="edgeStyle=elbowEdgeStyle;rounded=0;html=1;labelBackgroundColor=none;startArrow=none;startFill=0;startSize=8;endArrow=none;endFill=0;endSize=16;fontFamily=Verdana;fontSize=12;fontStyle=1;entryX=0;entryY=0.5;entryDx=0;entryDy=0;" parent="1" source="39150e848f15840c-9" target="0rFehyaGPtpCF3SvgttN-22" edge="1">
          <mxGeometry relative="1" as="geometry">
            <mxPoint x="620" y="330" as="targetPoint" />
            <Array as="points">
              <mxPoint x="480" y="220" />
              <mxPoint x="650" y="250" />
            </Array>
          </mxGeometry>
        </mxCell>
        <mxCell id="39150e848f15840c-16" style="edgeStyle=orthogonalEdgeStyle;rounded=0;html=1;dashed=1;labelBackgroundColor=none;startArrow=none;startFill=0;startSize=8;endArrow=open;endFill=0;endSize=16;fontFamily=Verdana;fontSize=12;" parent="1" source="39150e848f15840c-7" target="39150e848f15840c-8" edge="1">
          <mxGeometry relative="1" as="geometry" />
        </mxCell>
        <mxCell id="39150e848f15840c-17" style="edgeStyle=orthogonalEdgeStyle;rounded=0;html=1;labelBackgroundColor=none;startArrow=none;startFill=0;startSize=8;endArrow=none;endFill=0;endSize=16;fontFamily=Verdana;fontSize=12;" parent="1" source="39150e848f15840c-3" target="39150e848f15840c-2" edge="1">
          <mxGeometry relative="1" as="geometry">
            <Array as="points">
              <mxPoint x="690" y="675" />
            </Array>
          </mxGeometry>
        </mxCell>
        <mxCell id="39150e848f15840c-18" style="edgeStyle=orthogonalEdgeStyle;rounded=0;html=1;labelBackgroundColor=none;startArrow=none;startFill=0;startSize=8;endArrow=none;endFill=0;endSize=16;fontFamily=Verdana;fontSize=12;exitX=0.575;exitY=1.02;exitDx=0;exitDy=0;exitPerimeter=0;" parent="1" source="0rFehyaGPtpCF3SvgttN-11" edge="1">
          <mxGeometry relative="1" as="geometry">
            <Array as="points">
              <mxPoint x="480" y="61" />
            </Array>
            <mxPoint x="330" y="400" as="sourcePoint" />
            <mxPoint x="480" y="159" as="targetPoint" />
          </mxGeometry>
        </mxCell>
        <mxCell id="0rFehyaGPtpCF3SvgttN-3" value="Doctores" style="shape=component;align=left;spacingLeft=36;rounded=0;shadow=0;comic=0;labelBackgroundColor=none;strokeWidth=1;fontFamily=Verdana;fontSize=12;html=1;" vertex="1" parent="1">
          <mxGeometry x="755" y="690" width="120" height="60" as="geometry" />
        </mxCell>
        <mxCell id="0rFehyaGPtpCF3SvgttN-4" value="enfermeros" style="shape=component;align=left;spacingLeft=36;rounded=0;shadow=0;comic=0;labelBackgroundColor=none;strokeWidth=1;fontFamily=Verdana;fontSize=12;html=1;" vertex="1" parent="1">
          <mxGeometry x="760" y="210" width="120" height="60" as="geometry" />
        </mxCell>
        <mxCell id="0rFehyaGPtpCF3SvgttN-5" value="Caja" style="shape=component;align=left;spacingLeft=36;rounded=0;shadow=0;comic=0;labelBackgroundColor=none;strokeWidth=1;fontFamily=Verdana;fontSize=12;html=1;" vertex="1" parent="1">
          <mxGeometry x="760" y="300" width="120" height="60" as="geometry" />
        </mxCell>
        <mxCell id="0rFehyaGPtpCF3SvgttN-6" value="Directivas" style="shape=component;align=left;spacingLeft=36;rounded=0;shadow=0;comic=0;labelBackgroundColor=none;strokeWidth=1;fontFamily=Verdana;fontSize=12;html=1;" vertex="1" parent="1">
          <mxGeometry x="760" y="380" width="120" height="60" as="geometry" />
        </mxCell>
        <mxCell id="0rFehyaGPtpCF3SvgttN-7" value="Doctores" style="shape=component;align=left;spacingLeft=36;rounded=0;shadow=0;comic=0;labelBackgroundColor=none;strokeWidth=1;fontFamily=Verdana;fontSize=12;html=1;" vertex="1" parent="1">
          <mxGeometry x="755" y="610" width="120" height="60" as="geometry" />
        </mxCell>
        <mxCell id="0rFehyaGPtpCF3SvgttN-10" value="Base de datos" style="shape=component;align=left;spacingLeft=36;rounded=0;shadow=0;comic=0;labelBackgroundColor=none;strokeWidth=1;fontFamily=Verdana;fontSize=12;html=1;" vertex="1" parent="1">
          <mxGeometry x="50" y="160" width="140" height="60" as="geometry" />
        </mxCell>
        <mxCell id="0rFehyaGPtpCF3SvgttN-11" value="Seguridad" style="shape=component;align=left;spacingLeft=36;rounded=0;shadow=0;comic=0;labelBackgroundColor=none;strokeWidth=1;fontFamily=Verdana;fontSize=12;html=1;" vertex="1" parent="1">
          <mxGeometry x="410" y="10" width="120" height="50" as="geometry" />
        </mxCell>
        <mxCell id="0rFehyaGPtpCF3SvgttN-12" value="sistemas legados&lt;br&gt;" style="shape=component;align=left;spacingLeft=36;rounded=0;shadow=0;comic=0;labelBackgroundColor=none;strokeWidth=1;fontFamily=Verdana;fontSize=12;html=1;" vertex="1" parent="1">
          <mxGeometry x="40" y="340" width="150" height="60" as="geometry" />
        </mxCell>
        <mxCell id="0rFehyaGPtpCF3SvgttN-17" value="Pacientes&lt;br&gt;" style="shape=component;align=left;spacingLeft=36;rounded=0;shadow=0;comic=0;labelBackgroundColor=none;strokeWidth=1;fontFamily=Verdana;fontSize=12;html=1;" vertex="1" parent="1">
          <mxGeometry x="755" y="485" width="125" height="60" as="geometry" />
        </mxCell>
        <mxCell id="0rFehyaGPtpCF3SvgttN-18" value="" style="shape=providedRequiredInterface;html=1;verticalLabelPosition=bottom;sketch=0;" vertex="1" parent="1">
          <mxGeometry x="285" y="570" width="20" height="20" as="geometry" />
        </mxCell>
        <mxCell id="0rFehyaGPtpCF3SvgttN-21" value="" style="ellipse;whiteSpace=wrap;html=1;rounded=0;shadow=0;comic=0;labelBackgroundColor=none;strokeWidth=1;fontFamily=Verdana;fontSize=12;align=center;" vertex="1" parent="1">
          <mxGeometry x="740" y="230" width="20" height="20" as="geometry" />
        </mxCell>
        <mxCell id="0rFehyaGPtpCF3SvgttN-22" value="" style="ellipse;whiteSpace=wrap;html=1;rounded=0;shadow=0;comic=0;labelBackgroundColor=none;strokeWidth=1;fontFamily=Verdana;fontSize=12;align=center;" vertex="1" parent="1">
          <mxGeometry x="740" y="320" width="20" height="20" as="geometry" />
        </mxCell>
        <mxCell id="0rFehyaGPtpCF3SvgttN-23" value="" style="ellipse;whiteSpace=wrap;html=1;rounded=0;shadow=0;comic=0;labelBackgroundColor=none;strokeWidth=1;fontFamily=Verdana;fontSize=12;align=center;" vertex="1" parent="1">
          <mxGeometry x="740" y="400" width="20" height="20" as="geometry" />
        </mxCell>
        <mxCell id="0rFehyaGPtpCF3SvgttN-24" value="" style="ellipse;whiteSpace=wrap;html=1;rounded=0;shadow=0;comic=0;labelBackgroundColor=none;strokeWidth=1;fontFamily=Verdana;fontSize=12;align=center;" vertex="1" parent="1">
          <mxGeometry x="740" y="505" width="20" height="20" as="geometry" />
        </mxCell>
        <mxCell id="0rFehyaGPtpCF3SvgttN-30" style="edgeStyle=elbowEdgeStyle;rounded=0;html=1;labelBackgroundColor=none;startArrow=none;startFill=0;startSize=8;endArrow=none;endFill=0;endSize=16;fontFamily=Verdana;fontSize=12;entryX=0;entryY=0.5;entryDx=0;entryDy=0;" edge="1" parent="1" target="0rFehyaGPtpCF3SvgttN-24">
          <mxGeometry relative="1" as="geometry">
            <mxPoint x="740" y="245" as="sourcePoint" />
            <mxPoint x="550" y="415" as="targetPoint" />
            <Array as="points">
              <mxPoint x="480" y="290" />
              <mxPoint x="650" y="400" />
            </Array>
          </mxGeometry>
        </mxCell>
        <mxCell id="0rFehyaGPtpCF3SvgttN-33" style="edgeStyle=elbowEdgeStyle;rounded=0;html=1;labelBackgroundColor=none;startArrow=none;startFill=0;startSize=8;endArrow=none;endFill=0;endSize=16;fontFamily=Verdana;fontSize=12;entryX=0;entryY=0.5;entryDx=0;entryDy=0;" edge="1" parent="1" target="0rFehyaGPtpCF3SvgttN-23">
          <mxGeometry relative="1" as="geometry">
            <mxPoint x="480" y="320" as="sourcePoint" />
            <mxPoint x="750" y="525" as="targetPoint" />
            <Array as="points">
              <mxPoint x="480" y="390" />
              <mxPoint x="650" y="400" />
              <mxPoint x="660" y="410" />
            </Array>
          </mxGeometry>
        </mxCell>
        <mxCell id="0rFehyaGPtpCF3SvgttN-36" value="" style="rounded=0;orthogonalLoop=1;jettySize=auto;html=1;endArrow=none;endFill=0;sketch=0;sourcePerimeterSpacing=0;targetPerimeterSpacing=0;exitX=0.992;exitY=0.95;exitDx=0;exitDy=0;exitPerimeter=0;" edge="1" target="0rFehyaGPtpCF3SvgttN-38" parent="1" source="0rFehyaGPtpCF3SvgttN-6">
          <mxGeometry relative="1" as="geometry">
            <mxPoint x="890" y="435" as="sourcePoint" />
          </mxGeometry>
        </mxCell>
        <mxCell id="0rFehyaGPtpCF3SvgttN-37" value="" style="rounded=0;orthogonalLoop=1;jettySize=auto;html=1;endArrow=halfCircle;endFill=0;entryX=0.5;entryY=0.5;endSize=6;strokeWidth=1;sketch=0;" edge="1" target="0rFehyaGPtpCF3SvgttN-38" parent="1">
          <mxGeometry relative="1" as="geometry">
            <mxPoint x="920" y="435" as="sourcePoint" />
          </mxGeometry>
        </mxCell>
        <mxCell id="0rFehyaGPtpCF3SvgttN-38" value="" style="ellipse;whiteSpace=wrap;html=1;align=center;aspect=fixed;resizable=0;points=[];outlineConnect=0;sketch=0;" vertex="1" parent="1">
          <mxGeometry x="895" y="430" width="10" height="10" as="geometry" />
        </mxCell>
        <mxCell id="0rFehyaGPtpCF3SvgttN-43" value="" style="rounded=0;orthogonalLoop=1;jettySize=auto;html=1;endArrow=none;endFill=0;sketch=0;sourcePerimeterSpacing=0;targetPerimeterSpacing=0;exitX=1;exitY=0.75;exitDx=0;exitDy=0;" edge="1" target="0rFehyaGPtpCF3SvgttN-45" parent="1" source="0rFehyaGPtpCF3SvgttN-17">
          <mxGeometry relative="1" as="geometry">
            <mxPoint x="890" y="535" as="sourcePoint" />
          </mxGeometry>
        </mxCell>
        <mxCell id="0rFehyaGPtpCF3SvgttN-44" value="" style="rounded=0;orthogonalLoop=1;jettySize=auto;html=1;endArrow=halfCircle;endFill=0;entryX=0.5;entryY=0.5;endSize=6;strokeWidth=1;sketch=0;" edge="1" target="0rFehyaGPtpCF3SvgttN-45" parent="1">
          <mxGeometry relative="1" as="geometry">
            <mxPoint x="920" y="530" as="sourcePoint" />
          </mxGeometry>
        </mxCell>
        <mxCell id="0rFehyaGPtpCF3SvgttN-45" value="" style="ellipse;whiteSpace=wrap;html=1;align=center;aspect=fixed;resizable=0;points=[];outlineConnect=0;sketch=0;" vertex="1" parent="1">
          <mxGeometry x="895" y="525" width="10" height="10" as="geometry" />
        </mxCell>
        <mxCell id="0rFehyaGPtpCF3SvgttN-49" value="" style="rounded=0;orthogonalLoop=1;jettySize=auto;html=1;endArrow=none;endFill=0;sketch=0;sourcePerimeterSpacing=0;targetPerimeterSpacing=0;exitX=1;exitY=0.75;exitDx=0;exitDy=0;" edge="1" target="0rFehyaGPtpCF3SvgttN-51" parent="1" source="0rFehyaGPtpCF3SvgttN-5">
          <mxGeometry relative="1" as="geometry">
            <mxPoint x="890" y="345" as="sourcePoint" />
          </mxGeometry>
        </mxCell>
        <mxCell id="0rFehyaGPtpCF3SvgttN-50" value="" style="rounded=0;orthogonalLoop=1;jettySize=auto;html=1;endArrow=halfCircle;endFill=0;entryX=0.5;entryY=0.5;endSize=6;strokeWidth=1;sketch=0;" edge="1" target="0rFehyaGPtpCF3SvgttN-51" parent="1">
          <mxGeometry relative="1" as="geometry">
            <mxPoint x="920" y="345" as="sourcePoint" />
          </mxGeometry>
        </mxCell>
        <mxCell id="0rFehyaGPtpCF3SvgttN-51" value="" style="ellipse;whiteSpace=wrap;html=1;align=center;aspect=fixed;resizable=0;points=[];outlineConnect=0;sketch=0;" vertex="1" parent="1">
          <mxGeometry x="895" y="340" width="10" height="10" as="geometry" />
        </mxCell>
        <mxCell id="0rFehyaGPtpCF3SvgttN-52" value="" style="rounded=0;orthogonalLoop=1;jettySize=auto;html=1;endArrow=none;endFill=0;sketch=0;sourcePerimeterSpacing=0;targetPerimeterSpacing=0;exitX=1;exitY=0.75;exitDx=0;exitDy=0;" edge="1" target="0rFehyaGPtpCF3SvgttN-54" parent="1" source="0rFehyaGPtpCF3SvgttN-4">
          <mxGeometry relative="1" as="geometry">
            <mxPoint x="890" y="255" as="sourcePoint" />
          </mxGeometry>
        </mxCell>
        <mxCell id="0rFehyaGPtpCF3SvgttN-53" value="" style="rounded=0;orthogonalLoop=1;jettySize=auto;html=1;endArrow=halfCircle;endFill=0;entryX=0.5;entryY=0.5;endSize=6;strokeWidth=1;sketch=0;" edge="1" target="0rFehyaGPtpCF3SvgttN-54" parent="1">
          <mxGeometry relative="1" as="geometry">
            <mxPoint x="920" y="255" as="sourcePoint" />
          </mxGeometry>
        </mxCell>
        <mxCell id="0rFehyaGPtpCF3SvgttN-54" value="" style="ellipse;whiteSpace=wrap;html=1;align=center;aspect=fixed;resizable=0;points=[];outlineConnect=0;sketch=0;" vertex="1" parent="1">
          <mxGeometry x="895" y="250" width="10" height="10" as="geometry" />
        </mxCell>
        <mxCell id="0rFehyaGPtpCF3SvgttN-55" value="" style="rounded=0;orthogonalLoop=1;jettySize=auto;html=1;endArrow=none;endFill=0;sketch=0;sourcePerimeterSpacing=0;targetPerimeterSpacing=0;" edge="1" target="0rFehyaGPtpCF3SvgttN-57" parent="1">
          <mxGeometry relative="1" as="geometry">
            <mxPoint x="880" y="175" as="sourcePoint" />
          </mxGeometry>
        </mxCell>
        <mxCell id="0rFehyaGPtpCF3SvgttN-56" value="" style="rounded=0;orthogonalLoop=1;jettySize=auto;html=1;endArrow=halfCircle;endFill=0;entryX=0.5;entryY=0.5;endSize=6;strokeWidth=1;sketch=0;" edge="1" target="0rFehyaGPtpCF3SvgttN-57" parent="1">
          <mxGeometry relative="1" as="geometry">
            <mxPoint x="920" y="175" as="sourcePoint" />
          </mxGeometry>
        </mxCell>
        <mxCell id="0rFehyaGPtpCF3SvgttN-57" value="" style="ellipse;whiteSpace=wrap;html=1;align=center;aspect=fixed;resizable=0;points=[];outlineConnect=0;sketch=0;" vertex="1" parent="1">
          <mxGeometry x="895" y="170" width="10" height="10" as="geometry" />
        </mxCell>
        <mxCell id="39150e848f15840c-1" value="Hospital" style="verticalAlign=top;align=left;spacingTop=8;spacingLeft=2;spacingRight=12;shape=cube;size=10;direction=south;fontStyle=4;html=1;rounded=0;shadow=0;comic=0;labelBackgroundColor=none;strokeWidth=1;fontFamily=Verdana;fontSize=12" parent="1" vertex="1">
          <mxGeometry x="30" y="800" width="330" height="220" as="geometry" />
        </mxCell>
        <mxCell id="0rFehyaGPtpCF3SvgttN-62" value="" style="edgeStyle=orthogonalEdgeStyle;rounded=0;html=1;labelBackgroundColor=none;startArrow=none;startFill=0;startSize=8;endArrow=none;endFill=0;endSize=16;fontFamily=Verdana;fontSize=12;" edge="1" parent="1" source="39150e848f15840c-3" target="39150e848f15840c-1">
          <mxGeometry relative="1" as="geometry">
            <Array as="points">
              <mxPoint x="495" y="670" />
            </Array>
            <mxPoint x="495" y="820" as="sourcePoint" />
            <mxPoint x="280" y="880" as="targetPoint" />
          </mxGeometry>
        </mxCell>
      </root>
    </mxGraphModel>
  </diagram>
</mxfile>
